<svg width="800.267" height="73.7" viewBox="0 0 800.267 73.7" xmlns="http://www.w3.org/2000/svg"><g id="svgGroup" stroke-linecap="round" fill-rule="evenodd" font-size="9pt" stroke="#000" stroke-width="0.25mm" fill="#000" style="stroke:#000;stroke-width:0.25mm;fill:#000"><path d="M 325.9 68.4 L 324.4 55.4 A 0.833 0.833 0 0 1 324.388 55.326 Q 324.342 54.896 324.85 54.85 A 1.365 1.365 0 0 1 324.924 54.845 Q 325.401 54.828 325.497 55.19 A 0.613 0.613 0 0 1 325.5 55.2 Q 325.9 58.2 327.1 61.2 Q 328.3 64.2 330.35 66.7 A 15.642 15.642 0 0 0 335.26 70.652 A 17.891 17.891 0 0 0 335.45 70.75 Q 338.5 72.3 342.6 72.3 Q 345.7 72.3 348.6 71.15 Q 351.5 70 353.35 67.4 A 9.128 9.128 0 0 0 354.662 64.599 Q 355.015 63.37 355.136 61.902 A 19.469 19.469 0 0 0 355.2 60.3 Q 355.2 55.773 353.365 52.655 A 11.31 11.31 0 0 0 353.05 52.15 Q 350.9 48.9 347.6 46.55 Q 344.3 44.2 340.6 42.1 Q 337.1 40 333.8 37.7 A 20.223 20.223 0 0 1 329.407 33.587 A 18.706 18.706 0 0 1 328.45 32.25 A 12.227 12.227 0 0 1 326.772 28.121 Q 326.423 26.509 326.401 24.649 A 21.272 21.272 0 0 1 326.4 24.4 A 17.162 17.162 0 0 1 326.829 20.464 A 12.48 12.48 0 0 1 329 15.75 Q 331.6 12.3 335.75 10.6 Q 339.9 8.9 344.4 8.9 Q 347 8.9 349.85 9.45 A 27.827 27.827 0 0 1 353.463 10.415 A 34.774 34.774 0 0 1 355.8 11.3 A 3.987 3.987 0 0 1 356.256 11.502 Q 356.709 11.741 356.95 12.05 A 1.756 1.756 0 0 1 357.195 12.468 A 1.405 1.405 0 0 1 357.3 13 L 358.2 23.6 A 0.406 0.406 0 0 1 358.159 23.789 Q 358.072 23.957 357.799 23.991 A 1.209 1.209 0 0 1 357.65 24 Q 357.368 24 357.204 23.895 A 0.471 0.471 0 0 1 357 23.6 Q 356.8 21.4 355.95 19.05 Q 355.1 16.7 353.45 14.7 A 12.122 12.122 0 0 0 350.175 11.945 A 14.41 14.41 0 0 0 349.25 11.45 Q 346.7 10.2 343.1 10.2 A 16.685 16.685 0 0 0 340.351 10.413 Q 337.923 10.819 336.25 12 A 10.591 10.591 0 0 0 333.629 14.602 A 9.761 9.761 0 0 0 332.6 16.5 Q 331.5 19.2 331.5 22.1 Q 331.5 26.3 333.55 29.25 A 19.51 19.51 0 0 0 337.673 33.549 A 22.884 22.884 0 0 0 338.85 34.4 A 120.113 120.113 0 0 0 345.251 38.437 A 131.458 131.458 0 0 0 345.7 38.7 Q 349.4 40.8 352.8 43.15 Q 356.2 45.5 358.45 48.75 Q 360.7 52 360.7 56.8 Q 360.7 61.4 358.45 65.25 Q 356.2 69.1 351.7 71.4 A 19.511 19.511 0 0 1 346.976 73.051 Q 344.777 73.533 342.22 73.657 A 37.511 37.511 0 0 1 340.4 73.7 Q 338.2 73.7 336.05 73.4 A 24.008 24.008 0 0 1 332.63 72.657 A 27.552 27.552 0 0 1 331.65 72.35 Q 329.4 71.6 326.8 70.3 A 1.796 1.796 0 0 1 326.474 70.054 A 1.242 1.242 0 0 1 326.15 69.55 Q 326 69.1 325.9 68.4 Z M 9.2 64.4 L 9.2 18.1 Q 9.2 15.2 8.55 13.75 A 3.307 3.307 0 0 0 7.112 12.208 A 5.147 5.147 0 0 0 6 11.75 A 10.421 10.421 0 0 0 4.781 11.484 Q 3.441 11.267 1.526 11.216 A 46.142 46.142 0 0 0 0.3 11.2 A 0.133 0.133 0 0 1 0.185 11.128 Q 0.115 11.015 0.103 10.727 A 3.028 3.028 0 0 1 0.1 10.6 Q 0.1 10.156 0.21 10.04 A 0.121 0.121 0 0 1 0.3 10 Q 2.7 10 5.65 10.15 Q 8.6 10.3 11.8 10.3 A 93.247 93.247 0 0 0 15.976 10.202 A 113.869 113.869 0 0 0 18.65 10.05 Q 21.445 9.859 23.624 9.814 A 62.108 62.108 0 0 1 24.9 9.8 A 48.38 48.38 0 0 1 34.338 10.679 A 36.525 36.525 0 0 1 43.6 13.8 A 32.766 32.766 0 0 1 51.848 19.572 A 29.139 29.139 0 0 1 56.05 24.7 Q 60.5 31.6 60.5 40.2 A 35.934 35.934 0 0 1 59.646 48.179 A 29.875 29.875 0 0 1 57.8 53.75 Q 55.1 59.8 50.35 64.05 Q 45.6 68.3 39.4 70.6 Q 33.2 72.9 26.3 72.9 A 67.07 67.07 0 0 1 24.017 72.858 Q 21.963 72.788 19.4 72.6 A 116.203 116.203 0 0 0 14.977 72.357 A 91.224 91.224 0 0 0 11.8 72.3 A 188.484 188.484 0 0 0 6.353 72.377 A 171.126 171.126 0 0 0 5.6 72.4 Q 2.647 72.498 0.276 72.5 A 115.84 115.84 0 0 1 0.2 72.5 A 0.133 0.133 0 0 1 0.085 72.428 Q 0.015 72.315 0.003 72.027 A 3.028 3.028 0 0 1 0 71.9 Q 0 71.456 0.11 71.34 A 0.121 0.121 0 0 1 0.2 71.3 A 46.661 46.661 0 0 0 2.191 71.26 Q 4.548 71.159 5.95 70.8 A 4.97 4.97 0 0 0 7.078 70.371 A 3.201 3.201 0 0 0 8.55 68.8 Q 9.137 67.445 9.194 64.948 A 24.109 24.109 0 0 0 9.2 64.4 Z M 237.4 64.4 L 237.4 12.5 A 30.002 30.002 0 0 0 237.356 10.822 Q 237.262 9.142 236.963 8.03 A 5.952 5.952 0 0 0 236.7 7.25 A 2.974 2.974 0 0 0 236.126 6.349 Q 235.413 5.6 234.2 5.6 A 5.1 5.1 0 0 0 233.205 5.712 Q 232.199 5.915 230.803 6.483 A 29.706 29.706 0 0 0 229.4 7.1 Q 229 7.3 228.75 6.7 A 1.728 1.728 0 0 1 228.704 6.576 Q 228.559 6.137 228.835 6.021 A 0.452 0.452 0 0 1 228.9 6 L 241.2 0.1 A 0.881 0.881 0 0 1 241.409 0.028 Q 241.508 0.007 241.621 0.002 A 1.684 1.684 0 0 1 241.7 0 Q 241.9 0 242.149 0.199 A 1.584 1.584 0 0 1 242.15 0.2 A 0.703 0.703 0 0 1 242.312 0.379 A 0.599 0.599 0 0 1 242.4 0.7 L 242.4 64.4 A 24.35 24.35 0 0 0 242.455 66.101 Q 242.647 68.829 243.508 69.899 A 2.362 2.362 0 0 0 243.55 69.95 Q 244.7 71.3 248.9 71.3 Q 249.166 71.3 249.196 71.773 A 2.02 2.02 0 0 1 249.2 71.9 Q 249.2 72.5 248.9 72.5 A 71.077 71.077 0 0 1 247.534 72.486 Q 246.926 72.474 246.255 72.453 A 133.943 133.943 0 0 1 244.85 72.4 A 111.808 111.808 0 0 0 241.343 72.308 A 129.793 129.793 0 0 0 239.9 72.3 Q 237.4 72.3 235 72.4 A 137.537 137.537 0 0 1 233.298 72.461 Q 231.963 72.5 230.9 72.5 Q 230.634 72.5 230.604 72.027 A 2.02 2.02 0 0 1 230.6 71.9 Q 230.6 71.3 230.9 71.3 A 20.329 20.329 0 0 0 232.555 71.238 Q 235.246 71.017 236.189 70.012 A 2.089 2.089 0 0 0 236.2 70 A 3.145 3.145 0 0 0 236.78 69.031 Q 237.4 67.491 237.4 64.4 Z M 621.3 64.4 L 621.3 12.5 A 30.002 30.002 0 0 0 621.256 10.822 Q 621.162 9.142 620.863 8.03 A 5.952 5.952 0 0 0 620.6 7.25 A 2.974 2.974 0 0 0 620.026 6.349 Q 619.313 5.6 618.1 5.6 A 5.1 5.1 0 0 0 617.105 5.712 Q 616.099 5.915 614.703 6.483 A 29.706 29.706 0 0 0 613.3 7.1 Q 612.9 7.3 612.65 6.7 A 1.728 1.728 0 0 1 612.604 6.576 Q 612.459 6.137 612.735 6.021 A 0.452 0.452 0 0 1 612.8 6 L 625.1 0.1 A 0.881 0.881 0 0 1 625.309 0.028 Q 625.408 0.007 625.521 0.002 A 1.684 1.684 0 0 1 625.6 0 Q 625.8 0 626.049 0.199 A 1.584 1.584 0 0 1 626.05 0.2 A 0.703 0.703 0 0 1 626.212 0.379 A 0.599 0.599 0 0 1 626.3 0.7 L 626.3 64.4 A 24.35 24.35 0 0 0 626.355 66.101 Q 626.547 68.829 627.408 69.899 A 2.362 2.362 0 0 0 627.45 69.95 Q 628.6 71.3 632.8 71.3 Q 633.066 71.3 633.096 71.773 A 2.02 2.02 0 0 1 633.1 71.9 Q 633.1 72.5 632.8 72.5 A 71.077 71.077 0 0 1 631.434 72.486 Q 630.826 72.474 630.155 72.453 A 133.943 133.943 0 0 1 628.75 72.4 A 111.808 111.808 0 0 0 625.243 72.308 A 129.793 129.793 0 0 0 623.8 72.3 Q 621.3 72.3 618.9 72.4 A 137.537 137.537 0 0 1 617.198 72.461 Q 615.863 72.5 614.8 72.5 Q 614.534 72.5 614.504 72.027 A 2.02 2.02 0 0 1 614.5 71.9 Q 614.5 71.3 614.8 71.3 A 20.329 20.329 0 0 0 616.455 71.238 Q 619.146 71.017 620.089 70.012 A 2.089 2.089 0 0 0 620.1 70 A 3.145 3.145 0 0 0 620.68 69.031 Q 621.3 67.491 621.3 64.4 Z M 681.9 69.3 L 681.7 62.1 Q 681.7 61.8 682.25 61.75 Q 682.566 61.721 682.733 61.808 A 0.326 0.326 0 0 1 682.9 62 A 25.804 25.804 0 0 0 684.031 64.556 Q 684.691 65.844 685.44 66.884 A 14.283 14.283 0 0 0 685.95 67.55 A 12.203 12.203 0 0 0 687.921 69.498 A 9.899 9.899 0 0 0 689.9 70.7 A 11.208 11.208 0 0 0 693.481 71.638 A 13.643 13.643 0 0 0 694.8 71.7 Q 697.2 71.7 698.825 70.924 A 5.612 5.612 0 0 0 700.15 70.05 A 4.795 4.795 0 0 0 701.604 67.591 Q 701.884 66.492 701.8 65.1 A 10.337 10.337 0 0 0 701.542 63.08 Q 701.244 61.817 700.61 60.837 A 6.166 6.166 0 0 0 700.3 60.4 A 11.724 11.724 0 0 0 696.963 57.495 A 13.376 13.376 0 0 0 696.8 57.4 Q 694.7 56.2 692.4 55.1 A 58.205 58.205 0 0 1 687.791 52.634 A 53.691 53.691 0 0 1 687.65 52.55 Q 685.4 51.2 683.95 49.1 A 7.793 7.793 0 0 1 682.808 46.487 Q 682.558 45.458 682.511 44.261 A 14.332 14.332 0 0 1 682.5 43.7 A 11.839 11.839 0 0 1 682.818 40.886 A 8.569 8.569 0 0 1 684.5 37.45 Q 686.5 35 689.55 33.8 Q 692.6 32.6 695.9 32.6 Q 697.7 32.6 699.5 32.95 Q 701.3 33.3 703 34.1 Q 703.497 34.321 703.719 34.633 A 0.954 0.954 0 0 1 703.9 35.2 A 50.877 50.877 0 0 1 703.861 37.153 A 61.48 61.48 0 0 1 703.8 38.4 Q 703.7 40.1 703.7 42.1 A 0.133 0.133 0 0 1 703.628 42.215 Q 703.515 42.285 703.227 42.297 A 3.028 3.028 0 0 1 703.1 42.3 Q 702.656 42.3 702.54 42.19 A 0.121 0.121 0 0 1 702.5 42.1 Q 702.5 39.8 700.85 38.1 Q 699.2 36.4 696.85 35.5 A 13.514 13.514 0 0 0 693.651 34.689 A 11.954 11.954 0 0 0 692.2 34.6 A 8.418 8.418 0 0 0 690.48 34.765 Q 688.967 35.081 687.95 36 A 4.361 4.361 0 0 0 686.741 37.911 Q 686.4 38.941 686.4 40.3 A 8.954 8.954 0 0 0 686.649 42.463 A 6.776 6.776 0 0 0 687.75 44.85 A 11.037 11.037 0 0 0 690.598 47.545 A 12.965 12.965 0 0 0 691.25 47.95 Q 693.4 49.2 695.7 50.4 Q 698.3 51.6 700.6 53.05 A 14.583 14.583 0 0 1 703.466 55.39 A 13.047 13.047 0 0 1 704.4 56.5 A 7.176 7.176 0 0 1 705.613 59.13 Q 705.864 60.154 705.896 61.354 A 13.241 13.241 0 0 1 705.9 61.7 Q 705.9 64.9 704.3 67.6 Q 702.7 70.3 699.55 71.95 A 13.837 13.837 0 0 1 695.822 73.237 Q 694.009 73.6 691.9 73.6 Q 689.5 73.6 687.2 72.95 A 12.298 12.298 0 0 1 684.802 71.974 Q 683.663 71.372 682.5 70.5 A 2.696 2.696 0 0 1 682.313 70.291 Q 682.22 70.177 682.128 70.042 A 4.572 4.572 0 0 1 682.1 70 A 1.193 1.193 0 0 1 681.906 69.441 A 1.5 1.5 0 0 1 681.9 69.3 Z M 221 45.1 L 216.1 45.1 A 17.821 17.821 0 0 0 216.175 44.033 Q 216.311 40.6 214.947 38.457 A 6.433 6.433 0 0 0 214.25 37.55 A 7.736 7.736 0 0 0 209.798 35.169 A 11.261 11.261 0 0 0 207.8 35 Q 201.9 35 198.8 39.2 A 14.553 14.553 0 0 0 196.575 43.819 Q 195.987 45.836 195.794 48.249 A 30.772 30.772 0 0 0 195.7 50.7 Q 195.7 56.4 197.55 60.85 Q 199.4 65.3 203 67.9 A 13.697 13.697 0 0 0 209.553 70.384 A 17.673 17.673 0 0 0 211.6 70.5 A 18.237 18.237 0 0 0 216.059 69.93 A 20.915 20.915 0 0 0 216.9 69.7 A 15.964 15.964 0 0 0 221.689 67.328 A 18.159 18.159 0 0 0 222 67.1 Q 222.191 66.909 222.518 67.31 A 2.15 2.15 0 0 1 222.55 67.35 A 1.528 1.528 0 0 1 222.658 67.506 Q 222.773 67.7 222.773 67.862 A 0.42 0.42 0 0 1 222.7 68.1 A 27.389 27.389 0 0 1 219.408 70.539 A 20.199 20.199 0 0 1 215.65 72.4 Q 212.1 73.7 208.4 73.7 A 22.365 22.365 0 0 1 203.774 73.246 A 15.734 15.734 0 0 1 198.2 70.95 Q 194.1 68.2 192.05 63.8 Q 190 59.4 190 54.5 Q 190 48.4 192.8 43.55 Q 195.6 38.7 200.4 35.85 A 20.484 20.484 0 0 1 210.086 33.025 A 24.581 24.581 0 0 1 211.2 33 Q 216.5 33 219.35 35.65 Q 222.2 38.3 222.2 42.9 A 9.722 9.722 0 0 1 222.184 43.475 Q 222.144 44.155 222 44.55 Q 221.817 45.054 221.129 45.096 A 2.119 2.119 0 0 1 221 45.1 Z M 671 45.1 L 666.1 45.1 A 17.821 17.821 0 0 0 666.175 44.033 Q 666.311 40.6 664.947 38.457 A 6.433 6.433 0 0 0 664.25 37.55 A 7.736 7.736 0 0 0 659.798 35.169 A 11.261 11.261 0 0 0 657.8 35 Q 651.9 35 648.8 39.2 A 14.553 14.553 0 0 0 646.575 43.819 Q 645.987 45.836 645.794 48.249 A 30.772 30.772 0 0 0 645.7 50.7 Q 645.7 56.4 647.55 60.85 Q 649.4 65.3 653 67.9 A 13.697 13.697 0 0 0 659.553 70.384 A 17.673 17.673 0 0 0 661.6 70.5 A 18.237 18.237 0 0 0 666.059 69.93 A 20.915 20.915 0 0 0 666.9 69.7 A 15.964 15.964 0 0 0 671.689 67.328 A 18.159 18.159 0 0 0 672 67.1 Q 672.191 66.909 672.518 67.31 A 2.15 2.15 0 0 1 672.55 67.35 A 1.528 1.528 0 0 1 672.658 67.506 Q 672.773 67.7 672.773 67.862 A 0.42 0.42 0 0 1 672.7 68.1 A 27.389 27.389 0 0 1 669.408 70.539 A 20.199 20.199 0 0 1 665.65 72.4 Q 662.1 73.7 658.4 73.7 A 22.365 22.365 0 0 1 653.774 73.246 A 15.734 15.734 0 0 1 648.2 70.95 Q 644.1 68.2 642.05 63.8 Q 640 59.4 640 54.5 Q 640 48.4 642.8 43.55 Q 645.6 38.7 650.4 35.85 A 20.484 20.484 0 0 1 660.086 33.025 A 24.581 24.581 0 0 1 661.2 33 Q 666.5 33 669.35 35.65 Q 672.2 38.3 672.2 42.9 A 9.722 9.722 0 0 1 672.184 43.475 Q 672.144 44.155 672 44.55 Q 671.817 45.054 671.129 45.096 A 2.119 2.119 0 0 1 671 45.1 Z M 505.45 70.75 A 14.209 14.209 0 0 0 507.044 71.707 Q 510.91 73.7 516.5 73.7 A 23.933 23.933 0 0 0 518.016 73.653 A 20.392 20.392 0 0 0 524.1 72.35 Q 527.6 71 531 67.9 A 0.399 0.399 0 0 0 531.064 67.848 Q 531.228 67.681 531.032 67.404 A 1.263 1.263 0 0 0 530.95 67.3 A 1.488 1.488 0 0 0 530.919 67.266 Q 530.648 66.974 530.407 67.048 A 0.409 0.409 0 0 0 530.3 67.1 Q 528.1 69.1 525.35 69.85 A 22.858 22.858 0 0 1 524.154 70.142 A 19.675 19.675 0 0 1 520 70.6 Q 517.281 70.6 515.024 70.035 A 13.531 13.531 0 0 1 510.25 67.85 Q 506.5 65.1 504.7 60.65 A 24.054 24.054 0 0 1 504.181 59.244 A 25.561 25.561 0 0 1 502.9 51.1 A 30.673 30.673 0 0 1 502.93 49.743 Q 503.207 43.473 506.1 39.45 A 10.15 10.15 0 0 1 511.43 35.562 A 13.28 13.28 0 0 1 515.4 35 Q 517.425 35 518.829 35.42 A 5.656 5.656 0 0 1 520.25 36.05 Q 521.9 37.1 523.1 38.8 A 7.438 7.438 0 0 0 523.702 39.656 A 9.217 9.217 0 0 0 524.7 40.7 Q 525.7 41.6 527.1 41.6 A 3.726 3.726 0 0 0 527.93 41.513 A 2.43 2.43 0 0 0 529.25 40.75 A 2.937 2.937 0 0 0 529.79 39.872 A 3.19 3.19 0 0 0 530 38.7 A 2.898 2.898 0 0 0 529.827 37.711 Q 529.458 36.686 528.3 35.8 Q 526.6 34.5 524 33.75 Q 521.4 33 518.6 33 A 19.926 19.926 0 0 0 516.278 33.137 A 22.555 22.555 0 0 0 511.1 34.4 Q 507.3 35.8 504.15 38.5 Q 501 41.2 499.1 45.1 A 18.095 18.095 0 0 0 497.705 49.136 A 22.499 22.499 0 0 0 497.2 54 A 21.985 21.985 0 0 0 497.231 55.173 A 22.998 22.998 0 0 0 499.2 63.25 Q 501.2 67.8 505.45 70.75 Z M 722.55 70.75 A 14.209 14.209 0 0 0 724.144 71.707 Q 728.01 73.7 733.6 73.7 A 23.933 23.933 0 0 0 735.116 73.653 A 20.392 20.392 0 0 0 741.2 72.35 Q 744.7 71 748.1 67.9 A 0.399 0.399 0 0 0 748.164 67.848 Q 748.328 67.681 748.132 67.404 A 1.263 1.263 0 0 0 748.05 67.3 A 1.488 1.488 0 0 0 748.019 67.266 Q 747.748 66.974 747.507 67.048 A 0.409 0.409 0 0 0 747.4 67.1 Q 745.2 69.1 742.45 69.85 A 22.858 22.858 0 0 1 741.254 70.142 A 19.675 19.675 0 0 1 737.1 70.6 Q 734.381 70.6 732.124 70.035 A 13.531 13.531 0 0 1 727.35 67.85 Q 723.6 65.1 721.8 60.65 A 24.054 24.054 0 0 1 721.281 59.244 A 25.561 25.561 0 0 1 720 51.1 A 30.673 30.673 0 0 1 720.03 49.743 Q 720.307 43.473 723.2 39.45 A 10.15 10.15 0 0 1 728.53 35.562 A 13.28 13.28 0 0 1 732.5 35 Q 734.525 35 735.929 35.42 A 5.656 5.656 0 0 1 737.35 36.05 Q 739 37.1 740.2 38.8 A 7.438 7.438 0 0 0 740.802 39.656 A 9.217 9.217 0 0 0 741.8 40.7 Q 742.8 41.6 744.2 41.6 A 3.726 3.726 0 0 0 745.03 41.513 A 2.43 2.43 0 0 0 746.35 40.75 A 2.937 2.937 0 0 0 746.89 39.872 A 3.19 3.19 0 0 0 747.1 38.7 A 2.898 2.898 0 0 0 746.927 37.711 Q 746.558 36.686 745.4 35.8 Q 743.7 34.5 741.1 33.75 Q 738.5 33 735.7 33 A 19.926 19.926 0 0 0 733.378 33.137 A 22.555 22.555 0 0 0 728.2 34.4 Q 724.4 35.8 721.25 38.5 Q 718.1 41.2 716.2 45.1 A 18.095 18.095 0 0 0 714.805 49.136 A 22.499 22.499 0 0 0 714.3 54 A 21.985 21.985 0 0 0 714.331 55.173 A 22.998 22.998 0 0 0 716.3 63.25 Q 718.3 67.8 722.55 70.75 Z M 14.5 18.3 L 14.5 63.3 A 14.291 14.291 0 0 0 14.671 65.594 Q 14.868 66.8 15.29 67.753 A 5.867 5.867 0 0 0 16.55 69.6 A 4.984 4.984 0 0 0 18.124 70.589 Q 20.537 71.6 25.3 71.6 Q 33.7 71.6 40.15 68.25 Q 46.6 64.9 50.3 58.35 Q 53.897 51.982 53.997 42.921 A 47.164 47.164 0 0 0 54 42.4 A 38.673 38.673 0 0 0 52.908 33.054 A 32.649 32.649 0 0 0 50.55 26.55 Q 47.1 19.5 40.8 15.3 Q 34.5 11.1 25.8 11.1 Q 19.7 11.1 17.1 12.35 A 4.002 4.002 0 0 0 15.17 14.416 Q 14.52 15.868 14.501 18.156 A 16.709 16.709 0 0 0 14.5 18.3 Z M 145.3 64.4 L 145.3 47.7 A 25.636 25.636 0 0 0 145.118 44.532 Q 144.654 40.813 143 38.8 A 7.194 7.194 0 0 0 139.501 36.508 Q 138.29 36.127 136.814 36.032 A 15.762 15.762 0 0 0 135.8 36 A 12.738 12.738 0 0 0 131.235 36.881 A 17.923 17.923 0 0 0 128.05 38.5 Q 124.1 41 121.2 45.4 L 120.8 44.2 A 55.138 55.138 0 0 1 123.913 40.429 Q 126.945 37.093 129.8 35.3 A 18.537 18.537 0 0 1 133.921 33.34 A 14.732 14.732 0 0 1 138.5 32.6 A 16.497 16.497 0 0 1 141.84 32.918 Q 144.984 33.568 147 35.55 A 9.05 9.05 0 0 1 149.153 39.03 Q 150 41.406 150 44.7 L 150 64.4 A 25.346 25.346 0 0 0 150.055 66.138 Q 150.252 68.984 151.15 70 A 2.697 2.697 0 0 0 152.07 70.643 Q 153.514 71.3 156.5 71.3 Q 156.766 71.3 156.796 71.773 A 2.02 2.02 0 0 1 156.8 71.9 Q 156.8 72.5 156.5 72.5 A 69.997 69.997 0 0 1 155.141 72.486 Q 154.539 72.474 153.879 72.453 A 126.562 126.562 0 0 1 152.5 72.4 A 107.265 107.265 0 0 0 148.938 72.306 A 121.29 121.29 0 0 0 147.7 72.3 A 115.458 115.458 0 0 0 143.44 72.377 A 105.326 105.326 0 0 0 142.85 72.4 A 130.3 130.3 0 0 1 141.179 72.461 Q 139.863 72.5 138.8 72.5 Q 138.534 72.5 138.504 72.027 A 2.02 2.02 0 0 1 138.5 71.9 Q 138.5 71.3 138.8 71.3 A 20.329 20.329 0 0 0 140.455 71.238 Q 143.146 71.017 144.089 70.012 A 2.089 2.089 0 0 0 144.1 70 A 3.145 3.145 0 0 0 144.68 69.031 Q 145.3 67.491 145.3 64.4 Z M 480 64.4 L 480 47.7 A 25.636 25.636 0 0 0 479.818 44.532 Q 479.354 40.813 477.7 38.8 A 7.194 7.194 0 0 0 474.201 36.508 Q 472.99 36.127 471.514 36.032 A 15.762 15.762 0 0 0 470.5 36 A 12.738 12.738 0 0 0 465.935 36.881 A 17.923 17.923 0 0 0 462.75 38.5 Q 458.8 41 455.9 45.4 L 455.5 44.2 A 55.138 55.138 0 0 1 458.613 40.429 Q 461.645 37.093 464.5 35.3 A 18.537 18.537 0 0 1 468.621 33.34 A 14.732 14.732 0 0 1 473.2 32.6 A 16.497 16.497 0 0 1 476.54 32.918 Q 479.684 33.568 481.7 35.55 A 9.05 9.05 0 0 1 483.853 39.03 Q 484.7 41.406 484.7 44.7 L 484.7 64.4 A 25.346 25.346 0 0 0 484.755 66.138 Q 484.952 68.984 485.85 70 A 2.697 2.697 0 0 0 486.77 70.643 Q 488.214 71.3 491.2 71.3 Q 491.466 71.3 491.496 71.773 A 2.02 2.02 0 0 1 491.5 71.9 Q 491.5 72.5 491.2 72.5 A 69.997 69.997 0 0 1 489.841 72.486 Q 489.239 72.474 488.579 72.453 A 126.562 126.562 0 0 1 487.2 72.4 A 107.265 107.265 0 0 0 483.638 72.306 A 121.29 121.29 0 0 0 482.4 72.3 A 115.458 115.458 0 0 0 478.14 72.377 A 105.326 105.326 0 0 0 477.55 72.4 A 130.3 130.3 0 0 1 475.879 72.461 Q 474.563 72.5 473.5 72.5 Q 473.234 72.5 473.204 72.027 A 2.02 2.02 0 0 1 473.2 71.9 Q 473.2 71.3 473.5 71.3 A 20.329 20.329 0 0 0 475.155 71.238 Q 477.846 71.017 478.789 70.012 A 2.089 2.089 0 0 0 478.8 70 A 3.145 3.145 0 0 0 479.38 69.031 Q 480 67.491 480 64.4 Z M 107 68.2 L 96.7 73.1 A 1.926 1.926 0 0 1 96.25 73.262 A 1.633 1.633 0 0 1 95.9 73.3 A 1.527 1.527 0 0 1 94.976 72.967 Q 94.302 72.463 93.7 71.2 Q 92.749 69.203 92.702 65.488 A 30.899 30.899 0 0 1 92.7 65.1 L 92.7 47 A 40.715 40.715 0 0 0 92.616 44.293 Q 92.418 41.328 91.75 39.5 A 10.843 10.843 0 0 0 91.115 38.069 Q 90.328 36.611 89.25 35.95 Q 87.7 35 85.9 35 A 8.515 8.515 0 0 0 83.979 35.205 A 5.943 5.943 0 0 0 81.5 36.4 Q 79.8 37.8 78.95 39.75 A 19.192 19.192 0 0 0 78.256 41.58 A 14.001 14.001 0 0 0 77.8 43.4 Q 77.7 44.4 77.15 45.55 Q 76.718 46.454 75.389 46.647 A 5.495 5.495 0 0 1 74.6 46.7 A 3.973 3.973 0 0 1 73.618 46.584 A 2.96 2.96 0 0 1 72.45 46 A 2.275 2.275 0 0 1 71.648 44.585 A 3.394 3.394 0 0 1 71.6 44 A 3.957 3.957 0 0 1 71.925 42.474 Q 72.167 41.893 72.589 41.29 A 9.58 9.58 0 0 1 73.3 40.4 Q 74.947 38.559 77.485 36.906 A 28.799 28.799 0 0 1 77.65 36.8 Q 80.3 35.1 83.3 34.05 A 20.098 20.098 0 0 1 86.025 33.296 A 14.779 14.779 0 0 1 88.9 33 A 8.419 8.419 0 0 1 91.976 33.544 A 7.652 7.652 0 0 1 94.95 35.65 A 8.009 8.009 0 0 1 96.45 38.246 Q 97.287 40.536 97.3 43.896 A 27.456 27.456 0 0 1 97.3 44 L 97.3 61.7 A 24.389 24.389 0 0 0 97.36 63.475 Q 97.487 65.208 97.883 66.324 A 5.05 5.05 0 0 0 98.15 66.95 A 2.859 2.859 0 0 0 100.184 68.509 A 4.374 4.374 0 0 0 101.1 68.6 A 6.957 6.957 0 0 0 102.303 68.481 Q 103.579 68.255 105.343 67.598 A 35.662 35.662 0 0 0 106.6 67.1 A 0.839 0.839 0 0 1 106.705 67.065 Q 107.122 66.96 107.3 67.45 A 1.078 1.078 0 0 1 107.336 67.571 Q 107.42 67.923 107.169 68.109 A 0.753 0.753 0 0 1 107 68.2 Z M 294 68.2 L 283.7 73.1 A 1.926 1.926 0 0 1 283.25 73.262 A 1.633 1.633 0 0 1 282.9 73.3 A 1.527 1.527 0 0 1 281.976 72.967 Q 281.302 72.463 280.7 71.2 Q 279.749 69.203 279.702 65.488 A 30.899 30.899 0 0 1 279.7 65.1 L 279.7 47 A 40.715 40.715 0 0 0 279.616 44.293 Q 279.418 41.328 278.75 39.5 A 10.843 10.843 0 0 0 278.115 38.069 Q 277.328 36.611 276.25 35.95 Q 274.7 35 272.9 35 A 8.515 8.515 0 0 0 270.979 35.205 A 5.943 5.943 0 0 0 268.5 36.4 Q 266.8 37.8 265.95 39.75 A 19.192 19.192 0 0 0 265.256 41.58 A 14.001 14.001 0 0 0 264.8 43.4 Q 264.7 44.4 264.15 45.55 Q 263.718 46.454 262.389 46.647 A 5.495 5.495 0 0 1 261.6 46.7 A 3.973 3.973 0 0 1 260.618 46.584 A 2.96 2.96 0 0 1 259.45 46 A 2.275 2.275 0 0 1 258.648 44.585 A 3.394 3.394 0 0 1 258.6 44 A 3.957 3.957 0 0 1 258.925 42.474 Q 259.167 41.893 259.589 41.29 A 9.58 9.58 0 0 1 260.3 40.4 Q 261.947 38.559 264.485 36.906 A 28.799 28.799 0 0 1 264.65 36.8 Q 267.3 35.1 270.3 34.05 A 20.098 20.098 0 0 1 273.025 33.296 A 14.779 14.779 0 0 1 275.9 33 A 8.419 8.419 0 0 1 278.976 33.544 A 7.652 7.652 0 0 1 281.95 35.65 A 8.009 8.009 0 0 1 283.45 38.246 Q 284.287 40.536 284.3 43.896 A 27.456 27.456 0 0 1 284.3 44 L 284.3 61.7 A 24.389 24.389 0 0 0 284.36 63.475 Q 284.487 65.208 284.883 66.324 A 5.05 5.05 0 0 0 285.15 66.95 A 2.859 2.859 0 0 0 287.184 68.509 A 4.374 4.374 0 0 0 288.1 68.6 A 6.957 6.957 0 0 0 289.303 68.481 Q 290.579 68.255 292.343 67.598 A 35.662 35.662 0 0 0 293.6 67.1 A 0.839 0.839 0 0 1 293.705 67.065 Q 294.122 66.96 294.3 67.45 A 1.078 1.078 0 0 1 294.336 67.571 Q 294.42 67.923 294.169 68.109 A 0.753 0.753 0 0 1 294 68.2 Z M 441.7 68.2 L 431.4 73.1 A 1.926 1.926 0 0 1 430.95 73.262 A 1.633 1.633 0 0 1 430.6 73.3 A 1.527 1.527 0 0 1 429.676 72.967 Q 429.002 72.463 428.4 71.2 Q 427.449 69.203 427.402 65.488 A 30.899 30.899 0 0 1 427.4 65.1 L 427.4 47 A 40.715 40.715 0 0 0 427.316 44.293 Q 427.118 41.328 426.45 39.5 A 10.843 10.843 0 0 0 425.815 38.069 Q 425.028 36.611 423.95 35.95 Q 422.4 35 420.6 35 A 8.515 8.515 0 0 0 418.679 35.205 A 5.943 5.943 0 0 0 416.2 36.4 Q 414.5 37.8 413.65 39.75 A 19.192 19.192 0 0 0 412.956 41.58 A 14.001 14.001 0 0 0 412.5 43.4 Q 412.4 44.4 411.85 45.55 Q 411.418 46.454 410.089 46.647 A 5.495 5.495 0 0 1 409.3 46.7 A 3.973 3.973 0 0 1 408.318 46.584 A 2.96 2.96 0 0 1 407.15 46 A 2.275 2.275 0 0 1 406.348 44.585 A 3.394 3.394 0 0 1 406.3 44 A 3.957 3.957 0 0 1 406.625 42.474 Q 406.867 41.893 407.289 41.29 A 9.58 9.58 0 0 1 408 40.4 Q 409.647 38.559 412.185 36.906 A 28.799 28.799 0 0 1 412.35 36.8 Q 415 35.1 418 34.05 A 20.098 20.098 0 0 1 420.725 33.296 A 14.779 14.779 0 0 1 423.6 33 A 8.419 8.419 0 0 1 426.676 33.544 A 7.652 7.652 0 0 1 429.65 35.65 A 8.009 8.009 0 0 1 431.15 38.246 Q 431.987 40.536 432 43.896 A 27.456 27.456 0 0 1 432 44 L 432 61.7 A 24.389 24.389 0 0 0 432.06 63.475 Q 432.187 65.208 432.583 66.324 A 5.05 5.05 0 0 0 432.85 66.95 A 2.859 2.859 0 0 0 434.884 68.509 A 4.374 4.374 0 0 0 435.8 68.6 A 6.957 6.957 0 0 0 437.003 68.481 Q 438.279 68.255 440.043 67.598 A 35.662 35.662 0 0 0 441.3 67.1 A 0.839 0.839 0 0 1 441.405 67.065 Q 441.822 66.96 442 67.45 A 1.078 1.078 0 0 1 442.036 67.571 Q 442.12 67.923 441.869 68.109 A 0.753 0.753 0 0 1 441.7 68.2 Z M 569.3 61 L 569.3 45.5 Q 569.3 41.4 568.7 39.65 A 3.225 3.225 0 0 0 568.283 38.814 Q 567.629 37.9 566.4 37.9 Q 564.9 37.9 562.8 38.9 Q 562.4 39.1 562.15 38.5 A 1.728 1.728 0 0 1 562.104 38.376 Q 561.959 37.937 562.235 37.821 A 0.452 0.452 0 0 1 562.3 37.8 L 572.8 33.1 A 0.963 0.963 0 0 1 573.025 33.019 A 0.817 0.817 0 0 1 573.2 33 A 0.526 0.526 0 0 1 573.342 33.022 Q 573.476 33.059 573.643 33.163 A 2.165 2.165 0 0 1 573.7 33.2 A 0.819 0.819 0 0 1 573.858 33.335 A 0.533 0.533 0 0 1 574 33.7 L 574 58 A 28.15 28.15 0 0 0 574.166 61.174 Q 574.536 64.417 575.726 66.39 A 7.336 7.336 0 0 0 576.1 66.95 A 6.795 6.795 0 0 0 580.547 69.643 A 10.452 10.452 0 0 0 582.4 69.8 A 14.73 14.73 0 0 0 588.021 68.649 A 19.281 19.281 0 0 0 590.6 67.35 A 23.3 23.3 0 0 0 596.344 62.453 A 28.06 28.06 0 0 0 597.8 60.6 L 598.3 61.7 Q 594.912 65.987 591.715 68.577 A 23.19 23.19 0 0 1 588.9 70.55 A 19.5 19.5 0 0 1 583.918 72.656 A 16.668 16.668 0 0 1 579.7 73.2 A 12.179 12.179 0 0 1 576.381 72.771 A 9.026 9.026 0 0 1 572.1 70.15 Q 569.922 67.778 569.438 63.56 A 22.49 22.49 0 0 1 569.3 61 Z M 758.9 61 L 758.9 45.5 Q 758.9 41.4 758.3 39.65 A 3.225 3.225 0 0 0 757.883 38.814 Q 757.229 37.9 756 37.9 Q 754.5 37.9 752.4 38.9 Q 752 39.1 751.75 38.5 A 1.728 1.728 0 0 1 751.704 38.376 Q 751.559 37.937 751.835 37.821 A 0.452 0.452 0 0 1 751.9 37.8 L 762.4 33.1 A 0.963 0.963 0 0 1 762.625 33.019 A 0.817 0.817 0 0 1 762.8 33 A 0.526 0.526 0 0 1 762.942 33.022 Q 763.076 33.059 763.243 33.163 A 2.165 2.165 0 0 1 763.3 33.2 A 0.819 0.819 0 0 1 763.458 33.335 A 0.533 0.533 0 0 1 763.6 33.7 L 763.6 58 A 28.15 28.15 0 0 0 763.766 61.174 Q 764.136 64.417 765.326 66.39 A 7.336 7.336 0 0 0 765.7 66.95 A 6.795 6.795 0 0 0 770.147 69.643 A 10.452 10.452 0 0 0 772 69.8 A 14.73 14.73 0 0 0 777.621 68.649 A 19.281 19.281 0 0 0 780.2 67.35 A 23.3 23.3 0 0 0 785.944 62.453 A 28.06 28.06 0 0 0 787.4 60.6 L 787.9 61.7 Q 784.512 65.987 781.315 68.577 A 23.19 23.19 0 0 1 778.5 70.55 A 19.5 19.5 0 0 1 773.518 72.656 A 16.668 16.668 0 0 1 769.3 73.2 A 12.179 12.179 0 0 1 765.981 72.771 A 9.026 9.026 0 0 1 761.7 70.15 Q 759.522 67.778 759.038 63.56 A 22.49 22.49 0 0 1 758.9 61 Z M 375.8 65.7 L 375.8 41.9 Q 375.8 39.4 375.5 38.25 Q 375.2 37.1 374.1 36.75 A 5.431 5.431 0 0 0 373.378 36.581 Q 372.325 36.4 370.6 36.4 Q 370.334 36.4 370.304 35.927 A 2.02 2.02 0 0 1 370.3 35.8 Q 370.3 35.2 370.6 35.2 A 11.198 11.198 0 0 0 373.297 34.892 A 7.966 7.966 0 0 0 376.75 33.1 A 6.76 6.76 0 0 0 379.091 28.196 A 8.445 8.445 0 0 0 379.1 27.8 A 0.217 0.217 0 0 1 379.219 27.609 Q 379.382 27.51 379.767 27.501 A 3.439 3.439 0 0 1 379.85 27.5 A 2.865 2.865 0 0 1 380.086 27.509 Q 380.468 27.541 380.566 27.686 A 0.199 0.199 0 0 1 380.6 27.8 L 380.6 62.3 Q 380.6 65.021 381.46 66.839 A 6.057 6.057 0 0 0 382.65 68.55 A 6.507 6.507 0 0 0 385.33 70.134 Q 386.336 70.455 387.552 70.555 A 14.005 14.005 0 0 0 388.7 70.6 A 14.557 14.557 0 0 0 391.088 70.413 A 10.753 10.753 0 0 0 393.45 69.75 Q 395.5 68.9 396.8 67.9 A 0.626 0.626 0 0 1 396.913 67.856 Q 397.195 67.778 397.423 68.047 A 1.113 1.113 0 0 1 397.5 68.15 Q 397.792 68.588 397.42 68.884 A 0.893 0.893 0 0 1 397.4 68.9 Q 393.7 71.5 390.9 72.6 Q 388.1 73.7 385.1 73.7 Q 382.7 73.7 380.55 72.95 Q 378.4 72.2 377.1 70.45 A 6.098 6.098 0 0 1 376.146 68.461 Q 375.908 67.626 375.834 66.634 A 12.523 12.523 0 0 1 375.8 65.7 Z M 118.4 64.4 L 118.4 44.4 Q 118.4 41.585 117.852 40.038 A 4.725 4.725 0 0 0 117.6 39.45 A 2.696 2.696 0 0 0 115.672 37.985 A 4.214 4.214 0 0 0 114.8 37.9 A 6.255 6.255 0 0 0 113.994 37.956 Q 113.275 38.05 112.4 38.3 Q 111 38.7 109.2 39.4 A 0.552 0.552 0 0 1 109.104 39.415 Q 108.769 39.439 108.55 39 Q 108.334 38.567 108.604 38.359 A 0.588 0.588 0 0 1 108.7 38.3 L 119.8 33.1 A 0.881 0.881 0 0 1 120.009 33.028 Q 120.108 33.007 120.221 33.002 A 1.684 1.684 0 0 1 120.3 33 A 0.71 0.71 0 0 1 120.697 33.145 Q 121.279 33.545 122.05 35.05 A 7.847 7.847 0 0 1 122.648 36.678 Q 123.1 38.441 123.1 41 L 123.1 64.4 A 25.346 25.346 0 0 0 123.155 66.138 Q 123.352 68.984 124.25 70 A 2.697 2.697 0 0 0 125.17 70.643 Q 126.614 71.3 129.6 71.3 Q 129.866 71.3 129.896 71.773 A 2.02 2.02 0 0 1 129.9 71.9 Q 129.9 72.5 129.6 72.5 A 69.997 69.997 0 0 1 128.241 72.486 Q 127.639 72.474 126.979 72.453 A 126.562 126.562 0 0 1 125.6 72.4 A 107.265 107.265 0 0 0 122.038 72.306 A 121.286 121.286 0 0 0 120.8 72.3 A 115.458 115.458 0 0 0 116.54 72.377 A 105.326 105.326 0 0 0 115.95 72.4 A 130.3 130.3 0 0 1 114.279 72.461 Q 112.963 72.5 111.9 72.5 Q 111.634 72.5 111.604 72.027 A 2.02 2.02 0 0 1 111.6 71.9 Q 111.6 71.3 111.9 71.3 A 20.329 20.329 0 0 0 113.555 71.238 Q 116.246 71.017 117.189 70.012 A 2.089 2.089 0 0 0 117.2 70 A 3.145 3.145 0 0 0 117.78 69.031 Q 118.4 67.491 118.4 64.4 Z M 453.1 64.4 L 453.1 44.4 Q 453.1 41.585 452.552 40.038 A 4.725 4.725 0 0 0 452.3 39.45 A 2.696 2.696 0 0 0 450.372 37.985 A 4.214 4.214 0 0 0 449.5 37.9 A 6.255 6.255 0 0 0 448.694 37.956 Q 447.975 38.05 447.1 38.3 Q 445.7 38.7 443.9 39.4 A 0.552 0.552 0 0 1 443.804 39.415 Q 443.469 39.439 443.25 39 Q 443.034 38.567 443.304 38.359 A 0.588 0.588 0 0 1 443.4 38.3 L 454.5 33.1 A 0.881 0.881 0 0 1 454.709 33.028 Q 454.808 33.007 454.921 33.002 A 1.684 1.684 0 0 1 455 33 A 0.71 0.71 0 0 1 455.397 33.145 Q 455.979 33.545 456.75 35.05 A 7.847 7.847 0 0 1 457.348 36.678 Q 457.8 38.441 457.8 41 L 457.8 64.4 A 25.346 25.346 0 0 0 457.855 66.138 Q 458.052 68.984 458.95 70 A 2.697 2.697 0 0 0 459.87 70.643 Q 461.314 71.3 464.3 71.3 Q 464.566 71.3 464.596 71.773 A 2.02 2.02 0 0 1 464.6 71.9 Q 464.6 72.5 464.3 72.5 A 69.997 69.997 0 0 1 462.941 72.486 Q 462.339 72.474 461.679 72.453 A 126.562 126.562 0 0 1 460.3 72.4 A 107.265 107.265 0 0 0 456.738 72.306 A 121.286 121.286 0 0 0 455.5 72.3 A 115.458 115.458 0 0 0 451.24 72.377 A 105.326 105.326 0 0 0 450.65 72.4 A 130.3 130.3 0 0 1 448.979 72.461 Q 447.663 72.5 446.6 72.5 Q 446.334 72.5 446.304 72.027 A 2.02 2.02 0 0 1 446.3 71.9 Q 446.3 71.3 446.6 71.3 A 20.329 20.329 0 0 0 448.255 71.238 Q 450.946 71.017 451.889 70.012 A 2.089 2.089 0 0 0 451.9 70 A 3.145 3.145 0 0 0 452.48 69.031 Q 453.1 67.491 453.1 64.4 Z M 171.1 64.4 L 171.1 45.5 A 30.002 30.002 0 0 0 171.056 43.822 Q 170.962 42.142 170.663 41.03 A 5.952 5.952 0 0 0 170.4 40.25 A 2.824 2.824 0 0 0 169.76 39.294 Q 169.22 38.779 168.402 38.646 A 3.755 3.755 0 0 0 167.8 38.6 Q 167.031 38.6 166.078 38.856 A 10.365 10.365 0 0 0 165.75 38.95 Q 164.916 39.204 163.846 39.694 A 27.571 27.571 0 0 0 163 40.1 A 0.509 0.509 0 0 1 162.91 40.114 Q 162.646 40.132 162.453 39.84 A 1.386 1.386 0 0 1 162.35 39.65 A 1.368 1.368 0 0 1 162.299 39.523 Q 162.148 39.076 162.5 38.9 L 174.9 33.1 A 4.973 4.973 0 0 1 175.022 33.061 Q 175.188 33.01 175.27 33.002 A 0.29 0.29 0 0 1 175.3 33 Q 175.5 33 175.749 33.199 A 1.584 1.584 0 0 1 175.75 33.2 A 0.703 0.703 0 0 1 175.912 33.379 A 0.599 0.599 0 0 1 176 33.7 A 22.612 22.612 0 0 1 175.996 34.049 Q 175.981 34.991 175.9 37.55 A 159.122 159.122 0 0 0 175.856 39.222 Q 175.8 41.875 175.8 45.4 L 175.8 64.4 A 25.346 25.346 0 0 0 175.855 66.138 Q 176.052 68.984 176.95 70 A 2.697 2.697 0 0 0 177.87 70.643 Q 179.314 71.3 182.3 71.3 Q 182.566 71.3 182.596 71.773 A 2.02 2.02 0 0 1 182.6 71.9 Q 182.6 72.5 182.3 72.5 A 69.997 69.997 0 0 1 180.941 72.486 Q 180.339 72.474 179.679 72.453 A 126.562 126.562 0 0 1 178.3 72.4 A 105.606 105.606 0 0 0 175.308 72.314 A 126.611 126.611 0 0 0 173.4 72.3 A 114.106 114.106 0 0 0 169.763 72.356 A 100.756 100.756 0 0 0 168.6 72.4 A 116.958 116.958 0 0 1 166.683 72.468 Q 165.805 72.492 165.016 72.498 A 68.665 68.665 0 0 1 164.5 72.5 A 0.133 0.133 0 0 1 164.385 72.428 Q 164.315 72.315 164.303 72.027 A 3.028 3.028 0 0 1 164.3 71.9 Q 164.3 71.456 164.41 71.34 A 0.121 0.121 0 0 1 164.5 71.3 A 20.418 20.418 0 0 0 166.157 71.238 Q 167.866 71.098 168.887 70.644 A 3.02 3.02 0 0 0 169.85 70 A 3.124 3.124 0 0 0 170.454 69.031 Q 171.093 67.506 171.1 64.463 A 29.312 29.312 0 0 0 171.1 64.4 Z M 546.5 64.4 L 546.5 45.5 A 30.002 30.002 0 0 0 546.456 43.822 Q 546.362 42.142 546.063 41.03 A 5.952 5.952 0 0 0 545.8 40.25 A 2.824 2.824 0 0 0 545.16 39.294 Q 544.62 38.779 543.802 38.646 A 3.755 3.755 0 0 0 543.2 38.6 Q 542.431 38.6 541.478 38.856 A 10.365 10.365 0 0 0 541.15 38.95 Q 540.316 39.204 539.246 39.694 A 27.571 27.571 0 0 0 538.4 40.1 A 0.509 0.509 0 0 1 538.31 40.114 Q 538.046 40.132 537.853 39.84 A 1.386 1.386 0 0 1 537.75 39.65 A 1.368 1.368 0 0 1 537.699 39.523 Q 537.548 39.076 537.9 38.9 L 550.3 33.1 A 4.973 4.973 0 0 1 550.422 33.061 Q 550.588 33.01 550.67 33.002 A 0.29 0.29 0 0 1 550.7 33 Q 550.9 33 551.149 33.199 A 1.584 1.584 0 0 1 551.15 33.2 A 0.703 0.703 0 0 1 551.312 33.379 A 0.599 0.599 0 0 1 551.4 33.7 A 22.612 22.612 0 0 1 551.396 34.049 Q 551.381 34.991 551.3 37.55 A 159.122 159.122 0 0 0 551.256 39.222 Q 551.2 41.875 551.2 45.4 L 551.2 64.4 A 25.346 25.346 0 0 0 551.255 66.138 Q 551.452 68.984 552.35 70 A 2.697 2.697 0 0 0 553.27 70.643 Q 554.714 71.3 557.7 71.3 Q 557.966 71.3 557.996 71.773 A 2.02 2.02 0 0 1 558 71.9 Q 558 72.5 557.7 72.5 A 69.997 69.997 0 0 1 556.341 72.486 Q 555.739 72.474 555.079 72.453 A 126.562 126.562 0 0 1 553.7 72.4 A 105.606 105.606 0 0 0 550.708 72.314 A 126.611 126.611 0 0 0 548.8 72.3 A 114.106 114.106 0 0 0 545.163 72.356 A 100.756 100.756 0 0 0 544 72.4 A 116.958 116.958 0 0 1 542.083 72.468 Q 541.205 72.492 540.416 72.498 A 68.665 68.665 0 0 1 539.9 72.5 A 0.133 0.133 0 0 1 539.785 72.428 Q 539.715 72.315 539.703 72.027 A 3.028 3.028 0 0 1 539.7 71.9 Q 539.7 71.456 539.81 71.34 A 0.121 0.121 0 0 1 539.9 71.3 A 20.418 20.418 0 0 0 541.557 71.238 Q 543.266 71.098 544.287 70.644 A 3.02 3.02 0 0 0 545.25 70 A 3.124 3.124 0 0 0 545.854 69.031 Q 546.493 67.506 546.5 64.463 A 29.312 29.312 0 0 0 546.5 64.4 Z M 600.6 33.7 L 600.6 62 A 21.737 21.737 0 0 0 600.66 63.676 Q 600.826 65.812 601.45 66.95 A 2.821 2.821 0 0 0 603.48 68.426 A 4.306 4.306 0 0 0 604.3 68.5 A 7.05 7.05 0 0 0 605.506 68.39 Q 606.078 68.291 606.695 68.101 A 12.45 12.45 0 0 0 606.7 68.1 Q 607.969 67.71 609.809 67.034 A 109.411 109.411 0 0 0 609.9 67 A 0.839 0.839 0 0 1 610.005 66.965 Q 610.422 66.86 610.6 67.35 Q 610.785 67.858 610.457 68.068 A 0.626 0.626 0 0 1 610.4 68.1 L 599.2 73.3 A 0.963 0.963 0 0 1 598.975 73.381 A 0.817 0.817 0 0 1 598.8 73.4 A 0.71 0.71 0 0 1 598.403 73.255 Q 597.821 72.855 597.05 71.35 A 7.847 7.847 0 0 1 596.452 69.722 Q 596 67.959 596 65.4 L 596 45.5 Q 596 42.346 595.615 40.583 A 6.949 6.949 0 0 0 595.35 39.65 Q 594.715 37.939 593.076 37.901 A 3.236 3.236 0 0 0 593 37.9 Q 591.5 37.9 589.4 38.9 A 0.529 0.529 0 0 1 589.316 38.934 Q 589.005 39.027 588.829 38.581 A 1.604 1.604 0 0 1 588.8 38.5 A 1.646 1.646 0 0 1 588.765 38.38 Q 588.649 37.92 588.957 37.813 A 0.492 0.492 0 0 1 589 37.8 L 599.5 33.1 Q 599.654 33.023 599.748 33.005 A 0.282 0.282 0 0 1 599.8 33 A 0.526 0.526 0 0 1 599.942 33.022 Q 600.076 33.059 600.243 33.163 A 2.165 2.165 0 0 1 600.3 33.2 A 0.819 0.819 0 0 1 600.458 33.335 A 0.533 0.533 0 0 1 600.6 33.7 Z M 790.2 33.7 L 790.2 62 A 21.737 21.737 0 0 0 790.26 63.676 Q 790.426 65.812 791.05 66.95 A 2.821 2.821 0 0 0 793.08 68.426 A 4.306 4.306 0 0 0 793.9 68.5 A 7.05 7.05 0 0 0 795.106 68.39 Q 795.678 68.291 796.295 68.101 A 12.45 12.45 0 0 0 796.3 68.1 Q 797.569 67.71 799.409 67.034 A 109.411 109.411 0 0 0 799.5 67 A 0.839 0.839 0 0 1 799.605 66.965 Q 800.022 66.86 800.2 67.35 Q 800.385 67.858 800.057 68.068 A 0.626 0.626 0 0 1 800 68.1 L 788.8 73.3 A 0.963 0.963 0 0 1 788.575 73.381 A 0.817 0.817 0 0 1 788.4 73.4 A 0.71 0.71 0 0 1 788.003 73.255 Q 787.421 72.855 786.65 71.35 A 7.847 7.847 0 0 1 786.052 69.722 Q 785.6 67.959 785.6 65.4 L 785.6 45.5 Q 785.6 42.346 785.215 40.583 A 6.949 6.949 0 0 0 784.95 39.65 Q 784.315 37.939 782.676 37.901 A 3.236 3.236 0 0 0 782.6 37.9 Q 781.1 37.9 779 38.9 A 0.529 0.529 0 0 1 778.916 38.934 Q 778.605 39.027 778.429 38.581 A 1.604 1.604 0 0 1 778.4 38.5 A 1.646 1.646 0 0 1 778.365 38.38 Q 778.249 37.92 778.557 37.813 A 0.492 0.492 0 0 1 778.6 37.8 L 789.1 33.1 Q 789.254 33.023 789.348 33.005 A 0.282 0.282 0 0 1 789.4 33 A 0.526 0.526 0 0 1 789.542 33.022 Q 789.676 33.059 789.843 33.163 A 2.165 2.165 0 0 1 789.9 33.2 A 0.819 0.819 0 0 1 790.058 33.335 A 0.533 0.533 0 0 1 790.2 33.7 Z M 80.1 59.9 L 93.7 55 L 93.9 56 L 81.1 60.9 A 12.138 12.138 0 0 0 79.908 61.401 Q 78.711 61.988 78.08 62.705 A 3.471 3.471 0 0 0 78 62.8 A 3.906 3.906 0 0 0 77.192 64.572 A 5.468 5.468 0 0 0 77.1 65.6 A 5.65 5.65 0 0 0 77.248 66.931 A 3.733 3.733 0 0 0 78.35 68.85 A 4.313 4.313 0 0 0 80.866 69.966 A 5.769 5.769 0 0 0 81.5 70 A 8.574 8.574 0 0 0 82.816 69.902 A 7.255 7.255 0 0 0 83.55 69.75 A 9.423 9.423 0 0 0 84.838 69.313 A 8.218 8.218 0 0 0 85.3 69.1 L 94.6 64.4 L 94.8 65.5 L 86.1 70.2 Q 83.545 71.519 81.839 72.226 A 23.728 23.728 0 0 1 81.15 72.5 Q 79.3 73.2 77.4 73.2 A 9.277 9.277 0 0 1 75.603 73.038 Q 73.728 72.667 72.65 71.45 A 6.226 6.226 0 0 1 71.464 69.526 A 5.67 5.67 0 0 1 71.1 67.5 A 5.1 5.1 0 0 1 72.766 63.622 A 6.552 6.552 0 0 1 73.2 63.25 Q 74.971 61.858 78.663 60.431 A 53.81 53.81 0 0 1 80.1 59.9 Z M 267.1 59.9 L 280.7 55 L 280.9 56 L 268.1 60.9 A 12.138 12.138 0 0 0 266.908 61.401 Q 265.711 61.988 265.08 62.705 A 3.471 3.471 0 0 0 265 62.8 A 3.906 3.906 0 0 0 264.192 64.572 A 5.468 5.468 0 0 0 264.1 65.6 A 5.65 5.65 0 0 0 264.248 66.931 A 3.733 3.733 0 0 0 265.35 68.85 A 4.313 4.313 0 0 0 267.866 69.966 A 5.769 5.769 0 0 0 268.5 70 A 8.574 8.574 0 0 0 269.816 69.902 A 7.255 7.255 0 0 0 270.55 69.75 A 9.423 9.423 0 0 0 271.838 69.313 A 8.218 8.218 0 0 0 272.3 69.1 L 281.6 64.4 L 281.8 65.5 L 273.1 70.2 Q 270.545 71.519 268.839 72.226 A 23.728 23.728 0 0 1 268.15 72.5 Q 266.3 73.2 264.4 73.2 A 9.277 9.277 0 0 1 262.603 73.038 Q 260.728 72.667 259.65 71.45 A 6.226 6.226 0 0 1 258.464 69.526 A 5.67 5.67 0 0 1 258.1 67.5 A 5.1 5.1 0 0 1 259.766 63.622 A 6.552 6.552 0 0 1 260.2 63.25 Q 261.971 61.858 265.663 60.431 A 53.81 53.81 0 0 1 267.1 59.9 Z M 414.8 59.9 L 428.4 55 L 428.6 56 L 415.8 60.9 A 12.138 12.138 0 0 0 414.608 61.401 Q 413.411 61.988 412.78 62.705 A 3.471 3.471 0 0 0 412.7 62.8 A 3.906 3.906 0 0 0 411.892 64.572 A 5.468 5.468 0 0 0 411.8 65.6 A 5.65 5.65 0 0 0 411.948 66.931 A 3.733 3.733 0 0 0 413.05 68.85 A 4.313 4.313 0 0 0 415.566 69.966 A 5.769 5.769 0 0 0 416.2 70 A 8.574 8.574 0 0 0 417.516 69.902 A 7.255 7.255 0 0 0 418.25 69.75 A 9.423 9.423 0 0 0 419.538 69.313 A 8.218 8.218 0 0 0 420 69.1 L 429.3 64.4 L 429.5 65.5 L 420.8 70.2 Q 418.245 71.519 416.539 72.226 A 23.728 23.728 0 0 1 415.85 72.5 Q 414 73.2 412.1 73.2 A 9.277 9.277 0 0 1 410.303 73.038 Q 408.428 72.667 407.35 71.45 A 6.226 6.226 0 0 1 406.164 69.526 A 5.67 5.67 0 0 1 405.8 67.5 A 5.1 5.1 0 0 1 407.466 63.622 A 6.552 6.552 0 0 1 407.9 63.25 Q 409.671 61.858 413.363 60.431 A 53.81 53.81 0 0 1 414.8 59.9 Z M 217.3 45.1 L 194.4 45.2 L 194.3 44.1 L 217.3 43.6 L 217.3 45.1 Z M 667.3 45.1 L 644.4 45.2 L 644.3 44.1 L 667.3 43.6 L 667.3 45.1 Z M 379.4 37.2 L 379.4 35.1 A 93.285 93.285 0 0 0 386.034 34.87 A 84.939 84.939 0 0 0 386.95 34.8 Q 390.6 34.5 394.7 34.1 Q 394.94 34.1 395.116 34.515 A 2.455 2.455 0 0 1 395.2 34.749 Q 395.4 35.4 395.4 36.4 Q 395.4 37.1 395.1 37.95 Q 394.832 38.711 394.483 38.711 A 0.342 0.342 0 0 1 394.4 38.7 A 44.934 44.934 0 0 0 389.662 37.743 A 37.364 37.364 0 0 0 386.95 37.45 A 100.844 100.844 0 0 0 382.337 37.235 A 120.086 120.086 0 0 0 379.4 37.2 Z M 171.419 20.787 A 5.798 5.798 0 0 0 172.6 20.9 Q 175.554 20.9 176.212 18.604 A 5.47 5.47 0 0 0 176.4 17.1 Q 176.4 15.3 175.4 14.3 A 3.097 3.097 0 0 0 175.071 14.014 Q 174.505 13.589 173.737 13.417 A 5.203 5.203 0 0 0 172.6 13.3 A 6.842 6.842 0 0 0 172.299 13.306 Q 170.615 13.381 169.65 14.3 A 3.27 3.27 0 0 0 168.724 15.957 A 4.959 4.959 0 0 0 168.6 17.1 A 4.959 4.959 0 0 0 168.724 18.243 A 3.27 3.27 0 0 0 169.65 19.9 A 3.21 3.21 0 0 0 170.148 20.288 Q 170.699 20.637 171.419 20.787 Z M 546.819 20.787 A 5.798 5.798 0 0 0 548 20.9 Q 550.954 20.9 551.612 18.604 A 5.47 5.47 0 0 0 551.8 17.1 Q 551.8 15.3 550.8 14.3 A 3.097 3.097 0 0 0 550.471 14.014 Q 549.905 13.589 549.137 13.417 A 5.203 5.203 0 0 0 548 13.3 A 6.842 6.842 0 0 0 547.699 13.306 Q 546.015 13.381 545.05 14.3 A 3.27 3.27 0 0 0 544.124 15.957 A 4.959 4.959 0 0 0 544 17.1 A 4.959 4.959 0 0 0 544.124 18.243 A 3.27 3.27 0 0 0 545.05 19.9 A 3.21 3.21 0 0 0 545.548 20.288 Q 546.099 20.637 546.819 20.787 Z" vector-effect="non-scaling-stroke"/></g></svg>